# xmcd
#
# Track frame offsets: 
#        150
#        19891
#        38379
#        57163
#        76542
#        98238
#        115829
#        137518
#        158377
#        173511
#
# Disc length: 2549 seconds
#
# Revision: 1
# Processed by: cddbd v1.5.2PL0 Copyright (c) Steve Scherf et al.
# Submitted via: ExactAudioCopyFreeDBPlugin 1.0
#
DISCID=6009f30a
DTITLE=河合奈保子 - Book Case
DYEAR=1990
DGENRE=JPop
TTITLE0=美・感性
TTITLE1=風に吹かれて
TTITLE2=今日を生きよう
TTITLE3=哀しみをしるまえに
TTITLE4=朝への誓い
TTITLE5=心の窓に光りを
TTITLE6=Motion Poet
TTITLE7=霧情
TTITLE8=街角・On the street
TTITLE9=美・来
EXTD=
EXTT0=
EXTT1=
EXTT2=
EXTT3=
EXTT4=
EXTT5=
EXTT6=
EXTT7=
EXTT8=
EXTT9=
PLAYORDER=
